<svg width="13" height="12" viewBox="0 0 13 12" fill="none" xmlns="http://www.w3.org/2000/svg">
<g clip-path="url(#clip0_4_10)">
<path d="M3.97245 6C3.24923 6.02232 2.65771 6.30804 2.19789 6.85714H1.30057C0.934501 6.85714 0.626465 6.76674 0.376465 6.58594C0.126465 6.40513 0.00146484 6.14063 0.00146484 5.79241C0.00146484 4.21652 0.278251 3.42857 0.831822 3.42857C0.858608 3.42857 0.955706 3.47545 1.12312 3.5692C1.29053 3.66295 1.50816 3.75781 1.77602 3.85379C2.04388 3.94978 2.3095 3.99777 2.57289 3.99777C2.872 3.99777 3.16888 3.94643 3.46352 3.84375C3.4412 4.00893 3.43004 4.15625 3.43004 4.28571C3.43004 4.90625 3.61084 5.47768 3.97245 6ZM11.1443 10.2656C11.1443 10.8013 10.9814 11.2243 10.6555 11.5346C10.3296 11.8449 9.89655 12 9.35638 12H3.5037C2.96352 12 2.53048 11.8449 2.20459 11.5346C1.8787 11.2243 1.71575 10.8013 1.71575 10.2656C1.71575 10.029 1.72356 9.79799 1.73919 9.57254C1.75481 9.3471 1.78606 9.10379 1.83294 8.84263C1.87981 8.58147 1.93896 8.33929 2.01039 8.11607C2.08182 7.89286 2.1778 7.67522 2.29834 7.46317C2.41888 7.25112 2.55727 7.07031 2.71352 6.92076C2.86977 6.77121 3.06062 6.65179 3.28606 6.5625C3.51151 6.47321 3.76039 6.42857 4.03271 6.42857C4.07736 6.42857 4.17334 6.47656 4.32066 6.57254C4.46798 6.66853 4.63093 6.77567 4.8095 6.89397C4.98807 7.01228 5.22691 7.11942 5.52602 7.2154C5.82513 7.31138 6.12646 7.35938 6.43004 7.35938C6.73361 7.35938 7.03495 7.31138 7.33405 7.2154C7.63316 7.11942 7.872 7.01228 8.05057 6.89397C8.22914 6.77567 8.39209 6.66853 8.53941 6.57254C8.68673 6.47656 8.78271 6.42857 8.82736 6.42857C9.09968 6.42857 9.34856 6.47321 9.57401 6.5625C9.79946 6.65179 9.9903 6.77121 10.1466 6.92076C10.3028 7.07031 10.4412 7.25112 10.5617 7.46317C10.6823 7.67522 10.7783 7.89286 10.8497 8.11607C10.9211 8.33929 10.9803 8.58147 11.0271 8.84263C11.074 9.10379 11.1053 9.3471 11.1209 9.57254C11.1365 9.79799 11.1443 10.029 11.1443 10.2656ZM4.28718 1.71429C4.28718 2.1875 4.11977 2.59152 3.78495 2.92634C3.45013 3.26116 3.04611 3.42857 2.57289 3.42857C2.09968 3.42857 1.69566 3.26116 1.36084 2.92634C1.02602 2.59152 0.858608 2.1875 0.858608 1.71429C0.858608 1.24107 1.02602 0.837054 1.36084 0.502232C1.69566 0.167411 2.09968 0 2.57289 0C3.04611 0 3.45013 0.167411 3.78495 0.502232C4.11977 0.837054 4.28718 1.24107 4.28718 1.71429ZM9.00146 4.28571C9.00146 4.99554 8.75035 5.60156 8.24812 6.10379C7.74588 6.60603 7.13986 6.85714 6.43004 6.85714C5.72021 6.85714 5.11419 6.60603 4.61196 6.10379C4.10972 5.60156 3.85861 4.99554 3.85861 4.28571C3.85861 3.57589 4.10972 2.96987 4.61196 2.46763C5.11419 1.9654 5.72021 1.71429 6.43004 1.71429C7.13986 1.71429 7.74588 1.9654 8.24812 2.46763C8.75035 2.96987 9.00146 3.57589 9.00146 4.28571ZM12.8586 5.79241C12.8586 6.14063 12.7336 6.40513 12.4836 6.58594C12.2336 6.76674 11.9256 6.85714 11.5595 6.85714H10.6622C10.2024 6.30804 9.61084 6.02232 8.88763 6C9.24923 5.47768 9.43004 4.90625 9.43004 4.28571C9.43004 4.15625 9.41888 4.00893 9.39655 3.84375C9.6912 3.94643 9.98807 3.99777 10.2872 3.99777C10.5506 3.99777 10.8162 3.94978 11.0841 3.85379C11.3519 3.75781 11.5695 3.66295 11.737 3.5692C11.9044 3.47545 12.0015 3.42857 12.0283 3.42857C12.5818 3.42857 12.8586 4.21652 12.8586 5.79241ZM12.0015 1.71429C12.0015 2.1875 11.8341 2.59152 11.4992 2.92634C11.1644 3.26116 10.7604 3.42857 10.2872 3.42857C9.81396 3.42857 9.40995 3.26116 9.07513 2.92634C8.7403 2.59152 8.57289 2.1875 8.57289 1.71429C8.57289 1.24107 8.7403 0.837054 9.07513 0.502232C9.40995 0.167411 9.81396 0 10.2872 0C10.7604 0 11.1644 0.167411 11.4992 0.502232C11.8341 0.837054 12.0015 1.24107 12.0015 1.71429Z" fill="black"/>
</g>
<defs>
<clipPath id="clip0_4_10">
<rect width="12.86" height="12" fill="white"/>
</clipPath>
</defs>
</svg>
