<svg width="12" height="12" viewBox="0 0 12 12" fill="none" xmlns="http://www.w3.org/2000/svg">
<path d="M3 8.5H5.5V7.5H3V8.5ZM8 8.5H9V7.5H8V8.5ZM3 6.5H5.5V5.5H3V6.5ZM8 6.5H9V3.5H8V6.5ZM3 4.5H5.5V3.5H3V4.5ZM2 10.5C1.725 10.5 1.4895 10.402 1.2935 10.206C1.0975 10.01 0.999668 9.77467 1 9.5V2.5C1 2.225 1.098 1.9895 1.294 1.7935C1.49 1.5975 1.72533 1.49967 2 1.5H10C10.275 1.5 10.5105 1.598 10.7065 1.794C10.9025 1.99 11.0003 2.22533 11 2.5V9.5C11 9.775 10.902 10.0105 10.706 10.2065C10.51 10.4025 10.2747 10.5003 10 10.5H2Z" fill="black"/>
</svg>
