<svg width="11" height="12" viewBox="0 0 11 12" fill="none" xmlns="http://www.w3.org/2000/svg"><g clip-path="url(#clip0_1_7)"><path d="M5.25 6C4.45435 6 3.69129 5.68393 3.12868 5.12132C2.56607 4.55871 2.25 3.79565 2.25 3C2.25 2.20435 2.56607 1.44129 3.12868 0.87868C3.69129 0.316071 4.45435 0 5.25 0C6.04565 0 6.80871 0.316071 7.37132 0.87868C7.93393 1.44129 8.25 2.20435 8.25 3C8.25 3.79565 7.93393 4.55871 7.37132 5.12132C6.80871 5.68393 6.04565 6 5.25 6ZM4.90078 8.41875L4.46484 7.69219C4.31484 7.44141 4.49531 7.125 4.78594 7.125H5.71172C6.00234 7.125 6.18281 7.44375 6.03281 7.69219L5.59688 8.41875L6.37969 11.3227L7.22344 7.87969C7.27031 7.68984 7.45313 7.56562 7.64297 7.61484C9.28594 8.02734 10.5 9.51328 10.5 11.2805C10.5 11.6789 10.1766 12 9.78047 12H6.69141C6.64219 12 6.59766 11.9906 6.55547 11.9742L6.5625 12H3.9375L3.94453 11.9742C3.90234 11.9906 3.85547 12 3.80859 12H0.719531C0.323438 12 0 11.6766 0 11.2805C0 9.51094 1.21641 8.025 2.85703 7.61484C3.04688 7.56797 3.22969 7.69219 3.27656 7.87969L4.12031 11.3227L4.90312 8.41875H4.90078Z" fill="black"/></g><defs><clipPath id="clip0_1_7"><rect width="10.5" height="12" fill="white"/></clipPath></defs></svg>
